<?xml version="1.0" encoding="utf-8"?>
<!-- Generator: Adobe Illustrator 16.0.4, SVG Export Plug-In . SVG Version: 6.00 Build 0)  -->
<!DOCTYPE svg PUBLIC "-//W3C//DTD SVG 1.1//EN" "http://www.w3.org/Graphics/SVG/1.1/DTD/svg11.dtd">
<svg version="1.1" xmlns="http://www.w3.org/2000/svg" xmlns:xlink="http://www.w3.org/1999/xlink" x="0px" y="0px" width="865px"
	 height="1286.605px" viewBox="367.5 -212 865 1286.605" style="enable-background:new 367.5 -212 865 1286.605;"
	 xml:space="preserve">
<g id="Capa_1">
	<g>
		<path style="fill:#17E02A;" d="M1052.292,109.046c0,71.038-30.203,139.193-82.896,186.984
			c-10.344,9.406-23.318,14.056-36.329,14.056c-14.705,0-29.338-5.982-40.007-17.732c-20.075-22.094-18.417-56.297,3.712-76.336
			c30.131-27.392,47.396-66.353,47.396-106.972c0-40.728-17.229-79.652-47.215-106.863c-22.13-20.04-23.823-54.243-3.748-76.373
			c20.039-22.166,54.206-23.824,76.336-3.749C1022.125-30.291,1052.292,37.863,1052.292,109.046z M1106.858-196.083
			c-21.048-21.156-55.323-21.229-76.444-0.18c-21.192,21.048-21.265,55.288-0.216,76.48c60.73,60.982,94.177,142.256,94.177,228.829
			c0,86.355-33.519,167.558-94.357,228.757c-21.048,21.156-20.976,55.396,0.217,76.444c10.523,10.488,24.328,15.75,38.132,15.75
			c13.876,0,27.788-5.298,38.312-15.931c81.13-81.599,125.821-189.903,125.821-305.021
			C1232.5-6.287,1187.881-114.665,1106.858-196.083z M800,43.702c-36.149,0-65.308,29.158-65.308,65.344
			c0,36.042,29.194,65.344,65.344,65.344s65.308-29.302,65.308-65.344C865.344,72.86,836.149,43.702,800,43.702z M706.977-74.262
			c-20.075-22.129-54.243-23.787-76.372-3.712c-52.693,47.791-82.896,115.982-82.896,187.02c0,71.254,30.167,139.373,82.788,186.984
			c10.344,9.371,23.318,13.984,36.258,13.984c14.741,0,29.41-5.983,40.114-17.769c20.039-22.13,18.31-56.333-3.82-76.373
			c-29.986-27.139-47.215-66.064-47.215-106.827c0-40.619,17.265-79.58,47.431-106.936
			C725.394-17.965,727.052-52.168,706.977-74.262z M475.625,109.046c0-86.355,33.519-167.558,94.357-228.72
			c21.048-21.157,21.012-55.396-0.181-76.445c-21.12-21.084-55.36-20.976-76.444,0.181C412.191-114.413,367.5-6.071,367.5,109.046
			c0,115.297,44.619,223.675,125.642,305.129c10.56,10.632,24.436,15.931,38.312,15.931c13.805,0,27.572-5.263,38.133-15.751
			c21.156-21.048,21.229-55.287,0.18-76.444C509.071,276.855,475.625,195.582,475.625,109.046z"/>
	</g>
</g>
<g id="Capa_1_copy">
	<g>
		<path style="fill:#00B9EB;" d="M1052.292,753.546c0,71.038-30.203,139.193-82.896,186.984
			c-10.344,9.406-23.318,14.056-36.329,14.056c-14.705,0-29.338-5.982-40.007-17.732c-20.075-22.094-18.417-56.297,3.712-76.336
			c30.131-27.392,47.396-66.353,47.396-106.972c0-40.728-17.229-79.652-47.215-106.863c-22.13-20.04-23.823-54.243-3.748-76.372
			c20.039-22.166,54.206-23.824,76.336-3.749C1022.125,614.209,1052.292,682.363,1052.292,753.546z M1106.858,448.417
			c-21.048-21.156-55.323-21.229-76.444-0.181c-21.192,21.049-21.265,55.289-0.216,76.48
			c60.73,60.982,94.177,142.257,94.177,228.829c0,86.355-33.519,167.558-94.357,228.757c-21.048,21.156-20.976,55.396,0.217,76.444
			c10.523,10.488,24.328,15.75,38.132,15.75c13.876,0,27.788-5.298,38.312-15.931c81.13-81.599,125.821-189.903,125.821-305.021
			C1232.5,638.213,1187.881,529.836,1106.858,448.417z M800,688.202c-36.149,0-65.308,29.158-65.308,65.344
			c0,36.042,29.194,65.344,65.344,65.344s65.308-29.302,65.308-65.344C865.344,717.36,836.149,688.202,800,688.202z
			 M706.977,570.238c-20.075-22.13-54.243-23.787-76.372-3.713c-52.693,47.791-82.896,115.982-82.896,187.021
			c0,71.254,30.167,139.373,82.788,186.984c10.344,9.371,23.318,13.984,36.258,13.984c14.741,0,29.41-5.983,40.114-17.769
			c20.039-22.13,18.31-56.333-3.82-76.373c-29.986-27.139-47.215-66.064-47.215-106.827c0-40.619,17.265-79.58,47.431-106.936
			C725.394,626.535,727.052,592.332,706.977,570.238z M475.625,753.546c0-86.355,33.519-167.558,94.357-228.72
			c21.048-21.157,21.012-55.396-0.181-76.445c-21.12-21.084-55.36-20.976-76.444,0.181C412.191,530.088,367.5,638.429,367.5,753.546
			c0,115.297,44.619,223.675,125.642,305.129c10.56,10.632,24.436,15.931,38.312,15.931c13.805,0,27.572-5.263,38.133-15.751
			c21.156-21.048,21.229-55.287,0.18-76.444C509.071,921.355,475.625,840.082,475.625,753.546z"/>
	</g>
</g>
</svg>
