<?xml version="1.0" encoding="utf-8"?>
<!-- Generator: Adobe Illustrator 16.0.4, SVG Export Plug-In . SVG Version: 6.00 Build 0)  -->
<!DOCTYPE svg PUBLIC "-//W3C//DTD SVG 1.1//EN" "http://www.w3.org/Graphics/SVG/1.1/DTD/svg11.dtd">
<svg version="1.1" xmlns="http://www.w3.org/2000/svg" xmlns:xlink="http://www.w3.org/1999/xlink" x="0px" y="0px" width="1600px"
	 height="865px" viewBox="0 0 1600 865" style="enable-background:new 0 0 1600 865;" xml:space="preserve">
<g id="Capa_1">
	<g>
		<path style="fill:#25C149;" d="M777.282,252.753c0,39.673-16.869,77.737-46.297,104.428c-5.776,5.253-13.022,7.85-20.289,7.85
			c-8.212,0-16.385-3.341-22.343-9.903c-11.211-12.339-10.285-31.441,2.074-42.632c16.827-15.298,26.469-37.057,26.469-59.742
			c0-22.745-9.621-44.484-26.368-59.681c-12.36-11.192-13.305-30.294-2.093-42.653c11.191-12.379,30.273-13.305,42.632-2.094
			C760.434,174.936,777.282,212.999,777.282,252.753z M807.757,82.344c-11.756-11.815-30.897-11.856-42.693-0.101
			c-11.835,11.755-11.876,30.877-0.121,42.713c33.917,34.058,52.596,79.448,52.596,127.797c0,48.229-18.719,93.578-52.697,127.757
			c-11.754,11.816-11.714,30.938,0.121,42.693c5.877,5.858,13.587,8.796,21.296,8.796c7.75,0,15.52-2.959,21.397-8.897
			c45.31-45.572,70.27-106.058,70.27-170.349C877.926,188.342,853.007,127.814,807.757,82.344z M636.381,216.26
			c-20.189,0-36.473,16.284-36.473,36.493c0,20.129,16.305,36.494,36.494,36.494c20.188,0,36.473-16.364,36.473-36.494
			C672.874,232.544,656.57,216.26,636.381,216.26z M584.429,150.379c-11.212-12.36-30.293-13.285-42.652-2.074
			c-29.429,26.691-46.296,64.775-46.296,104.448c0,39.794,16.848,77.837,46.236,104.428c5.777,5.234,13.023,7.81,20.25,7.81
			c8.233,0,16.425-3.342,22.403-9.923c11.192-12.36,10.226-31.462-2.133-42.654c-16.747-15.156-26.369-36.896-26.369-59.661
			c0-22.685,9.642-44.444,26.489-59.722C594.715,181.819,595.64,162.717,584.429,150.379z M455.223,252.753
			c0-48.229,18.719-93.578,52.697-127.736c11.755-11.815,11.735-30.938-0.102-42.693c-11.794-11.776-30.917-11.715-42.692,0.1
			c-45.33,45.532-70.289,106.038-70.289,170.329c0,64.391,24.919,124.919,70.168,170.41c5.898,5.938,13.646,8.897,21.396,8.897
			c7.709,0,15.399-2.939,21.296-8.796c11.815-11.755,11.856-30.877,0.101-42.693C473.902,346.472,455.223,301.082,455.223,252.753z"
			/>
	</g>
</g>
<g id="Capa_1_copy">
	<g>
		<path style="fill:#132DEA;" d="M777.282,611.799c0,39.673-16.869,77.737-46.297,104.428c-5.776,5.253-13.022,7.851-20.289,7.851
			c-8.212,0-16.385-3.342-22.343-9.904c-11.211-12.339-10.285-31.441,2.074-42.632c16.827-15.298,26.469-37.058,26.469-59.742
			c0-22.745-9.621-44.484-26.368-59.682c-12.36-11.191-13.305-30.293-2.093-42.652c11.191-12.379,30.273-13.305,42.632-2.094
			C760.434,533.981,777.282,572.045,777.282,611.799z M807.757,441.39c-11.756-11.815-30.897-11.856-42.693-0.101
			c-11.835,11.755-11.876,30.877-0.121,42.713c33.917,34.059,52.596,79.447,52.596,127.797c0,48.229-18.719,93.578-52.697,127.757
			c-11.754,11.816-11.714,30.938,0.121,42.693c5.877,5.857,13.587,8.796,21.296,8.796c7.75,0,15.52-2.959,21.397-8.897
			c45.31-45.571,70.27-106.057,70.27-170.349C877.926,547.388,853.007,486.859,807.757,441.39z M636.381,575.306
			c-20.189,0-36.473,16.284-36.473,36.493c0,20.13,16.305,36.493,36.494,36.493c20.188,0,36.473-16.363,36.473-36.493
			C672.874,591.59,656.57,575.306,636.381,575.306z M584.429,509.425c-11.212-12.36-30.293-13.285-42.652-2.073
			c-29.429,26.69-46.296,64.774-46.296,104.447c0,39.794,16.848,77.837,46.236,104.428c5.777,5.233,13.023,7.81,20.25,7.81
			c8.233,0,16.425-3.342,22.403-9.922c11.192-12.36,10.226-31.463-2.133-42.654c-16.747-15.156-26.369-36.896-26.369-59.661
			c0-22.685,9.642-44.444,26.489-59.723C594.715,540.865,595.64,521.764,584.429,509.425z M455.223,611.799
			c0-48.229,18.719-93.578,52.697-127.736c11.755-11.815,11.735-30.938-0.102-42.693c-11.794-11.775-30.917-11.715-42.692,0.101
			c-45.33,45.532-70.289,106.038-70.289,170.329c0,64.392,24.919,124.919,70.168,170.409c5.898,5.938,13.646,8.897,21.396,8.897
			c7.709,0,15.399-2.939,21.296-8.796c11.815-11.756,11.856-30.877,0.101-42.693C473.902,705.518,455.223,660.128,455.223,611.799z"
			/>
	</g>
</g>
</svg>
